<?xml version="1.0" encoding="utf-8"?>
<!-- Generator: Adobe Illustrator 21.0.0, SVG Export Plug-In . SVG Version: 6.00 Build 0)  -->
<svg version="1.1" id="Layer_1" xmlns="http://www.w3.org/2000/svg" xmlns:xlink="http://www.w3.org/1999/xlink" x="0px" y="0px"
	 viewBox="0 0 1024 768" style="enable-background:new 0 0 1024 768;" xml:space="preserve">
<style type="text/css">
	.st0{fill:#232323;}
	.st1{fill:#BC4714;}
	.st2{fill:#1E1E1E;}
</style>
<path class="st0" d="M582.5,374.1c-0.1-0.9-0.2-1.6-0.2-2.1c0-2.7,0.7-5,2.2-6.9l36-23.1c2.9,0.5,5.2,1.7,6.8,3.4
	c1.6,1.8,2.5,3.8,2.5,6.2c0,1.7-0.5,3.4-1.5,5.2L595,372.2l28.5,12.9c1.1,1.7,1.6,3.5,1.6,5.1c0,2.5-1,4.6-3,6.3
	c-2,1.7-4.5,2.6-7.6,2.6L582.5,374.1z"/>
<path class="st1" d="M663,401.2c-6.7-3.8-11.9-8.9-15.8-15.3c-3.8-6.4-5.7-13.5-5.7-21.2c0-8.8,2.1-17.2,6.2-25
	c4.1-7.9,10-14.2,17.6-19s16.5-7.2,26.5-7.2c9.8,0,18.1,2,25,6.1s12.1,9.4,15.6,16.1c3.5,6.6,5.2,13.8,5.2,21.4
	c0,9-2.2,17.3-6.5,24.9s-10.4,13.6-18.4,18.1c-7.9,4.5-17.1,6.8-27.5,6.8C677.1,406.9,669.7,405,663,401.2z M705.6,388.6
	c6-3.3,10.6-7.8,13.8-13.4c3.2-5.7,4.8-12,4.8-19c0-5.5-1.2-10.5-3.7-14.9s-6.1-7.9-10.9-10.5c-4.8-2.6-10.5-3.9-17.1-3.9
	c-7.5,0-14,1.7-19.5,5.2c-5.5,3.4-9.7,8-12.6,13.7S656,357.6,656,364c0,5.6,1.2,10.7,3.7,15.2s5.9,8,10.3,10.5
	c4.4,2.5,9.3,3.8,14.8,3.8C692.7,393.5,699.6,391.9,705.6,388.6z M676,382.6c-3.1-1.9-5.6-4.3-7.6-7.2c-2-2.9-3-5.5-3-7.9
	c0-5.5,1.1-10.9,3.4-16.1c2.3-5.2,5.4-9.4,9.4-12.6s8.4-4.9,13.4-4.9c3.6,0,6.8,0.6,9.7,1.9s5.1,2.9,6.6,4.8s2.3,3.9,2.3,6
	c0,1.9-0.8,3.6-2.5,4.9c-1.6,1.3-4.1,2-7.3,2l-2.2-0.1c-0.6-1.7-1.4-3.4-2.5-4.9s-2.1-2.7-3.2-3.5c-4,2.2-7.1,5.6-9.2,10.3
	c-2.2,4.6-3.3,9.7-3.3,15.2c0,1.4,0,2.4,0.1,3.1c7.9-0.3,14.9-3.1,20.9-8.3c2.7,1,4.8,2.2,6.2,3.6c1.4,1.5,2.1,3,2.1,4.7
	c0,2-1,4-3,5.9s-4.8,3.4-8.6,4.6c-3.7,1.2-8,1.7-12.7,1.7C682.2,385.5,679.1,384.5,676,382.6z"/>
<path class="st2" d="M749.9,415.4c-2.1-0.9-3.9-2.1-5.5-3.5c-1.5-1.4-2.3-2.7-2.3-3.9c0-1,0.5-3.2,1.5-6.5s2.2-7.1,3.5-11.2
	c3.7-11.6,6.1-19.4,7.2-23.4c0.9-3.1,2.4-9.3,4.7-18.5c2-8.4,3.6-14.5,4.9-18.3c1.3-3.8,2.6-5.7,4.1-5.7s3.2,0.6,5.1,1.9
	c2,1.2,3.7,2.7,5.1,4.3c1.5,1.6,2.2,3,2.2,4.2c0,1.3-0.4,3.4-1.2,6.3s-2.1,7.3-3.9,13.1c-2.3,7.3-4.3,13.8-5.9,19.5l-4.5,16.7
	c-2.4,9.4-4.3,16.2-5.6,20.3c-1.3,4.2-2.6,6.3-3.9,6.3C753.9,416.8,752,416.3,749.9,415.4z"/>
<path class="st2" d="M787.6,395c-1.8-1.9-2.7-4.3-2.7-7c0-1.6,0.3-3.2,1-4.8l32.3-13.7L789.7,355c-1.2-1.7-1.7-3.4-1.7-5.2
	c0-2.4,1-4.5,2.9-6.3c2-1.8,4.5-2.9,7.5-3.2l32.8,24.6c0.4,0.7,0.5,1.7,0.5,2.9c0,2.1-0.5,4.1-1.5,6L795,398.3
	C791.9,398.1,789.5,397,787.6,395z"/>
<path d="M233,360.2v-44.4c4-0.6,9.1-0.9,15.3-0.9c11.6,0,17.4,4.1,17.4,12.2v33.2H233V360.2z M259.9,355.7v-27.9
	c0-1.5-0.2-2.7-0.7-3.7s-1.1-1.8-1.8-2.4s-1.7-1-2.9-1.3s-2.3-0.5-3.3-0.6s-2.2-0.1-3.5-0.1c-2.8,0-5.4,0.1-7.7,0.3l-1.3,0.1v35.6
	H259.9z"/>
<path d="M276.1,345.1v-29.6h5.8v23.7l-4.6,5.9H276.1z"/>
<path d="M288.1,315.1c3.2-0.2,6.1-0.2,8.7-0.2s4.7,0.2,6.4,0.5c1.7,0.3,3.3,0.8,4.8,1.5s2.7,1.6,3.7,2.7c2.1,2.3,3.2,5.5,3.2,9.6
	v31.2h-5.8V329c0-6.2-4.1-9.2-12.4-9.2c-2.5,0-5.4,0.1-8.7,0.2L288.1,315.1L288.1,315.1z"/>
<path d="M355.7,360.2h-32.9v-4.5h19.1l7.9,0.4V356l-11.5-15.6l-15.8-24.8h6.5l13.4,21.5l1.1,1.6c1.8-1.1,3.1-2.8,4-5.3
	s1.6-5.8,2-9.8l0.8-8h5.8l-0.7,7.2c0,0.2-0.1,0.8-0.2,1.7c-0.1,0.9-0.2,1.7-0.2,2.2s-0.2,1.3-0.3,2.3c-0.1,1-0.3,1.9-0.5,2.6
	s-0.5,1.5-0.8,2.5s-0.7,1.8-1.1,2.5s-0.9,1.5-1.5,2.3c-1.1,1.5-2.6,2.7-4.5,3.7l9.5,13.3L355.7,360.2L355.7,360.2z"/>
<path d="M370.5,360.2h-5.8v-44.7h5.8V360.2z"/>
<path d="M381.2,345.1v-29.6h5.8v23.7l-4.6,5.9H381.2z"/>
<path d="M416.1,360.7c-1,0-2.2-0.2-3.5-0.5v-4.7c1.7,0.2,2.6,0.3,2.8,0.3c3.3,0,5-2,5-5.9v-29.5l-4.9,0.5V316
	c6.4-0.7,12.1-1.1,16.9-1.1c4.1,0,7.6,0.7,10.4,2c3,1.4,5,3.6,6.1,6.7c0.6,1.6,0.9,3.5,0.9,5.5v31.2H444V329c0-6.2-4.1-9.2-12.4-9.2
	c-1,0-2.8,0.1-5.5,0.2v29.2c0,3.6-0.8,6.5-2.5,8.5C422,359.7,419.4,360.7,416.1,360.7z"/>
<path d="M466.4,360.2h-5.8v-44.7h5.8V360.2z"/>
<path d="M477,345.1v-29.6h5.8v23.7l-4.6,5.9H477z"/>
<path d="M498.9,360.2h-5.8v-44.7h5.8V360.2z"/>
<path d="M511.1,315.3c1.7-0.3,3.5-0.5,5.5-0.5c1.9,0,3.7,0.2,5.4,0.7c1.6,0.5,3,1.1,4.2,1.9c1.1,0.8,2.2,1.7,3,2.8
	c0.9,1.1,1.6,2.2,2.1,3.3c0.5,1.1,1,2.4,1.3,3.7c0.6,2.2,0.9,4.5,0.9,6.9v7.6c0,1.4-0.1,2.9-0.4,4.5c-0.3,1.6-0.6,3-1,4.1
	s-1,2.4-1.9,3.8s-1.9,2.6-3,3.5c-1.2,0.9-2.7,1.7-4.6,2.4s-3.9,1-6,1s-4-0.1-5.6-0.3c-1.6-0.2-2.7-0.4-3.4-0.7l-1-0.3v-5.2
	c3,1,6.3,1.5,9.9,1.5c1.4,0,2.7-0.2,3.8-0.6s2.1-0.9,2.8-1.5c0.8-0.6,1.4-1.4,2-2.3s1-1.8,1.3-2.6c0.3-0.9,0.5-1.8,0.7-2.7
	c0.3-1.5,0.5-3,0.5-4.6v-6.8c0-2.9-0.3-5.4-1-7.3c-0.3-0.9-0.7-1.8-1.3-2.7c-0.6-1-1.2-1.8-2-2.4s-1.7-1.2-3-1.6
	c-1.2-0.4-2.7-0.7-4.4-0.7s-3.4,0.1-5,0.4c-1.6,0.3-2.8,0.6-3.5,0.9l-1,0.5v-5.1c0.3-0.1,0.6-0.3,1.1-0.5
	C508.3,315.9,509.4,315.6,511.1,315.3z"/>
<path d="M556.4,315.5v4.5c-0.1,0.1-0.3,0.2-0.6,0.3c-0.2,0.2-0.6,0.6-1.2,1.3c-0.6,0.7-1.1,1.5-1.6,2.4s-0.9,2.2-1.2,4
	c-0.4,1.7-0.6,3.6-0.6,5.8v26.5h-5.8v-26.4c0-1.6,0.2-3.2,0.6-4.8c0.4-1.5,0.9-2.8,1.5-3.8c1.2-2.2,2.3-3.6,3.2-4.4l0.6-0.6V320
	h-10.7v-4.5H556.4z"/>
<path class="st1" d="M261.4,412.7v-22.2h4.3v17.8l-3.4,4.4L261.4,412.7L261.4,412.7z"/>
<path class="st1" d="M275.5,390.5h17.6v3.4l-4.5,17.1l-2.7,13h-4.4l2.7-13l4.5-17.1h-17.6v-10.2h4.3v6.8H275.5z"/>
<path class="st1" d="M318,396.4c-0.6-0.8-1.4-1.5-2.4-2s-2.2-0.8-3.5-0.8c-1.4,0-2.6,0.1-3.6,0.3v-3.5c1-0.2,2.3-0.3,3.7-0.3
	s2.8,0.2,4.1,0.6c1.3,0.4,2.4,1.1,3.5,2s2,2,2.7,3.4c1.6,2.8,2.4,6.6,2.4,11.3c0,2.4-0.2,4.5-0.7,6.4s-1.1,3.6-1.9,4.9
	s-1.7,2.4-2.8,3.4c-1.1,0.9-2.3,1.6-3.6,2c-1.3,0.4-2.6,0.6-4.1,0.6s-2.8-0.2-4.1-0.6c-1.3-0.4-2.5-1.1-3.6-2s-2.1-2-2.8-3.4
	c-0.8-1.3-1.4-3-1.9-4.9s-0.7-4.1-0.7-6.4v-16.8h4.5v16.8c0,3.8,0.6,6.9,1.7,9.4c0.6,1.4,1.5,2.4,2.7,3.2c1.2,0.8,2.5,1.1,3.9,1.1
	s2.7-0.3,3.7-0.8s1.8-1.2,2.5-2s1.1-1.9,1.5-3.1c0.7-2.1,1.1-4.7,1.1-7.8c0-1.5-0.1-2.9-0.2-4.1s-0.4-2.4-0.7-3.7
	S318.6,397.3,318,396.4z"/>
<path class="st1" d="M331,412.7v-22.2h4.3v17.8l-3.4,4.4L331,412.7L331,412.7z"/>
<path class="st1" d="M347.7,393.5c-0.9,0-2,0.2-3.2,0.5v-3.4c1.4-0.4,2.9-0.5,4.7-0.5c5.4,0,8.1,3,8.1,8.9v25.1h-3.6l-0.5-5.7H353
	c-0.1,0.2-0.3,0.6-0.6,1.1c-0.3,0.5-0.6,1-0.9,1.4s-0.7,0.8-1.2,1.3s-1,0.9-1.6,1.2s-1.2,0.6-1.9,0.9c-0.7,0.2-1.5,0.4-2.3,0.4
	c-1.6,0-2.8-0.1-3.6-0.3l0.6-3.9c0.7,0.2,1.9,0.3,3.6,0.3c1.2,0,2.5-0.5,3.9-1.5c1.6-1.2,2.8-2.9,3.5-4.9c0.4-1.2,0.6-2.5,0.6-3.9
	v-11c0-2.1-0.5-3.6-1.4-4.5C350.7,393.9,349.4,393.5,347.7,393.5z"/>
<path class="st1" d="M365.1,412.7v-22.2h4.3v17.8l-3.4,4.4L365.1,412.7L365.1,412.7z"/>
<path class="st1" d="M398.6,390.5v3c-3.6,1-5.4,3.5-5.4,7.5v23.1h-4.3V401c0-1,0.1-2,0.4-2.8c0.2-0.9,0.5-1.5,0.9-2
	c0.7-1,1.4-1.7,1.9-1.9l0.4-0.2V394h-18.3v-3.4h24.4V390.5z"/>
<path class="st1" d="M427.9,396.5c0.4,1.2,0.6,2.6,0.6,4.1V424h-4.3v-23.4c0-4.6-3.1-6.9-9.3-6.9c-2.7,0-5.8,0.1-9.1,0.3l-1.8,0.1
	v-3.7c4-0.3,7.7-0.4,11.1-0.4s6.1,0.5,8.3,1.5C425.5,392.5,427,394.2,427.9,396.5z M408.3,424.1H404v-21.4h4.3V424.1z"/>
<path class="st1" d="M450.1,400.7c0-3.4-0.6-6.8-1.8-10.1h4.3c0.1,0.3,0.3,0.8,0.5,1.4s0.5,1.8,0.8,3.5c0.3,1.8,0.5,3.5,0.5,5.2
	v36.1h-4.3V400.7z"/>
<path class="st1" d="M484,390.5v3c-3.6,1-5.4,3.5-5.4,7.5v23.1h-4.3V401c0-1,0.1-2,0.4-2.8c0.2-0.9,0.5-1.5,0.9-2
	c0.7-1,1.4-1.7,1.9-1.9l0.4-0.2V394h-18.3v-3.4H484V390.5z"/>
<path class="st1" d="M489,412.7v-22.2h4.3v17.8l-3.4,4.4L489,412.7L489,412.7z"/>
<path class="st1" d="M505.5,390.5l4,15.1c0.5,2.2,1.5,6.9,3.1,13.9c5.1-1.9,8-6.7,8.7-14.4l1.3-14.6h4.3l-1.3,14.6
	c-0.2,2.2-0.5,4.1-1,5.7s-1,2.9-1.5,3.9s-1.2,2-2.1,3.1s-1.9,2-3,2.8s-2.5,1.5-4.2,2.1s-3.5,1.1-5.5,1.4l-9.6,1.4V422l10.2-1.6
	l-7.9-29.9H505.5z"/>
<path class="st1" d="M532.3,390.4c2.8-0.3,6-0.4,9.7-0.4s6.5,0.8,8.3,2.4s2.7,4.4,2.7,8.2v20h3.8v3.4h-24.5v-3.4h16.4v-20.1
	c0-2.7-0.6-4.5-1.8-5.5s-3.1-1.5-5.6-1.5c-2.7,0-5.2,0.1-7.7,0.3l-1.3,0.1L532.3,390.4L532.3,390.4z"/>
</svg>
